<svg width="34" height="34" viewBox="0 0 34 34" fill="none" xmlns="http://www.w3.org/2000/svg">
<path d="M23.9834 0.333328H10.0167C3.95004 0.333328 0.333374 3.95 0.333374 10.0167V23.9667C0.333374 30.05 3.95004 33.6667 10.0167 33.6667H23.9667C30.0334 33.6667 33.65 30.05 33.65 23.9833V10.0167C33.6667 3.95 30.05 0.333328 23.9834 0.333328ZM16.1667 25.75C16.1667 26.35 15.5667 26.75 15.0167 26.5167C13 25.65 10.3667 24.85 8.53337 24.6167L8.21671 24.5833C7.20004 24.45 6.36671 23.5 6.36671 22.4667V9.63333C6.36671 8.34999 7.40004 7.4 8.66671 7.5C10.75 7.66666 13.8334 8.66666 15.7667 9.76666C16.0334 9.91666 16.1667 10.2 16.1667 10.4833V25.75ZM27.6334 22.45C27.6334 23.4833 26.8 24.4333 25.7834 24.5667L25.4334 24.6C23.6167 24.85 21 25.6333 18.9834 26.4833C18.4334 26.7167 17.8334 26.3167 17.8334 25.7167V10.4667C17.8334 10.1667 17.9834 9.88333 18.25 9.73333C20.1834 8.64999 23.2 7.68333 25.25 7.5H25.3167C26.6 7.5 27.6334 8.53333 27.6334 9.81666V22.45Z" fill="#546FFF"/>
</svg>